<?xml version="1.0" encoding="UTF-8"?>
<svg width="35px" height="35px" viewBox="0 0 35 35" version="1.1" xmlns="http://www.w3.org/2000/svg" xmlns:xlink="http://www.w3.org/1999/xlink">
    <title>close_bold</title>
    <g id="切图icon" stroke="none" stroke-width="1" fill="none" fill-rule="evenodd">
        <g id="阅读器-切图" transform="translate(-7.000000, -471.000000)" fill="#000000" fill-rule="nonzero">
            <g id="close-bold" transform="translate(7.000000, 471.000000)">
                <rect id="矩形" opacity="0" x="0" y="0" width="35" height="35"></rect>
                <path d="M18.8125,17.5 L24.71875,11.59375 C25.09375,11.21875 25.09375,10.65625 24.71875,10.28125 C24.34375,9.90625 23.78125,9.90625 23.40625,10.28125 L17.5,16.1875 L11.59375,10.28125 C11.21875,9.90625 10.65625,9.90625 10.28125,10.28125 C9.90625,10.65625 9.90625,11.21875 10.28125,11.59375 L16.1875,17.5 L10.28125,23.40625 C9.90625,23.78125 9.90625,24.34375 10.28125,24.71875 C10.46875,24.90625 10.703125,25 10.9375,25 C11.171875,25 11.40625,24.90625 11.59375,24.71875 L17.5,18.8125 L23.40625,24.71875 C23.59375,24.90625 23.828125,25 24.0625,25 C24.296875,25 24.53125,24.90625 24.71875,24.71875 C25.09375,24.34375 25.09375,23.78125 24.71875,23.40625 L18.8125,17.5 Z" id="路径"></path>
            </g>
        </g>
    </g>
</svg>